<mxfile host="65bd71144e">
    <diagram id="zuWlcrifUETlGWYmAasj" name="Page-1">
        <mxGraphModel dx="522" dy="334" grid="1" gridSize="10" guides="1" tooltips="1" connect="1" arrows="1" fold="1" page="1" pageScale="1" pageWidth="827" pageHeight="1169" math="0" shadow="0">
            <root>
                <mxCell id="0"/>
                <mxCell id="1" parent="0"/>
                <mxCell id="2" value="" style="rounded=0;whiteSpace=wrap;html=1;" parent="1" vertex="1">
                    <mxGeometry x="60" y="80" width="340" height="190" as="geometry"/>
                </mxCell>
                <mxCell id="3" value="schedule" style="text;html=1;strokeColor=none;fillColor=none;align=center;verticalAlign=middle;whiteSpace=wrap;rounded=0;" parent="1" vertex="1">
                    <mxGeometry x="70" y="80" width="60" height="30" as="geometry"/>
                </mxCell>
                <mxCell id="18" style="edgeStyle=none;html=1;entryX=0.5;entryY=0;entryDx=0;entryDy=0;" parent="1" source="4" target="14" edge="1">
                    <mxGeometry relative="1" as="geometry"/>
                </mxCell>
                <mxCell id="4" value="workList" style="rounded=0;whiteSpace=wrap;html=1;align=left;verticalAlign=top;" parent="1" vertex="1">
                    <mxGeometry x="120" y="102.5" width="225" height="30" as="geometry"/>
                </mxCell>
                <mxCell id="5" value="perform" style="rounded=0;whiteSpace=wrap;html=1;align=left;verticalAlign=top;" parent="1" vertex="1">
                    <mxGeometry x="70" y="290" width="330" height="100" as="geometry"/>
                </mxCell>
                <mxCell id="10" style="edgeStyle=none;html=1;entryX=0;entryY=0.5;entryDx=0;entryDy=0;" parent="1" source="8" target="2" edge="1">
                    <mxGeometry relative="1" as="geometry">
                        <mxPoint x="40" y="210" as="targetPoint"/>
                        <Array as="points">
                            <mxPoint x="40" y="370"/>
                            <mxPoint x="40" y="175"/>
                        </Array>
                    </mxGeometry>
                </mxCell>
                <mxCell id="8" value="具体工作" style="text;html=1;strokeColor=none;fillColor=none;align=center;verticalAlign=middle;whiteSpace=wrap;rounded=0;" parent="1" vertex="1">
                    <mxGeometry x="320" y="360" width="60" height="30" as="geometry"/>
                </mxCell>
                <mxCell id="11" value="work" style="rounded=1;whiteSpace=wrap;html=1;fillColor=#000066;" parent="1" vertex="1">
                    <mxGeometry x="170" y="107.5" width="40" height="20" as="geometry"/>
                </mxCell>
                <mxCell id="13" value="work" style="rounded=1;whiteSpace=wrap;html=1;fillColor=#000066;" parent="1" vertex="1">
                    <mxGeometry x="215" y="107.5" width="40" height="20" as="geometry"/>
                </mxCell>
                <mxCell id="16" style="edgeStyle=none;html=1;entryX=0.5;entryY=0;entryDx=0;entryDy=0;" parent="1" source="14" target="15" edge="1">
                    <mxGeometry relative="1" as="geometry"/>
                </mxCell>
                <mxCell id="22" value="" style="edgeStyle=none;html=1;" parent="1" source="14" target="19" edge="1">
                    <mxGeometry relative="1" as="geometry"/>
                </mxCell>
                <mxCell id="23" value="" style="edgeStyle=none;html=1;" parent="1" source="14" target="19" edge="1">
                    <mxGeometry relative="1" as="geometry"/>
                </mxCell>
                <mxCell id="27" value="" style="edgeStyle=none;html=1;" parent="1" source="14" target="24" edge="1">
                    <mxGeometry relative="1" as="geometry"/>
                </mxCell>
                <mxCell id="28" value="" style="edgeStyle=none;html=1;" parent="1" source="14" target="24" edge="1">
                    <mxGeometry relative="1" as="geometry"/>
                </mxCell>
                <mxCell id="30" style="edgeStyle=none;html=1;" parent="1" source="14" edge="1">
                    <mxGeometry relative="1" as="geometry">
                        <mxPoint x="470" y="170" as="targetPoint"/>
                    </mxGeometry>
                </mxCell>
                <mxCell id="14" value="策略逻辑" style="text;html=1;strokeColor=none;fillColor=none;align=center;verticalAlign=middle;whiteSpace=wrap;rounded=0;" parent="1" vertex="1">
                    <mxGeometry x="205" y="160" width="60" height="20" as="geometry"/>
                </mxCell>
                <mxCell id="15" value="scheduleCallback(priority,perform.bind())" style="text;html=1;strokeColor=none;fillColor=none;align=center;verticalAlign=middle;whiteSpace=wrap;rounded=0;" parent="1" vertex="1">
                    <mxGeometry x="120" y="220" width="230" height="30" as="geometry"/>
                </mxCell>
                <mxCell id="19" value="找到最高优先级work" style="text;html=1;strokeColor=none;fillColor=none;align=center;verticalAlign=middle;whiteSpace=wrap;rounded=0;" parent="1" vertex="1">
                    <mxGeometry x="225" y="128" width="135" height="32" as="geometry"/>
                </mxCell>
                <mxCell id="24" value="满足条件，开始调度" style="text;html=1;strokeColor=none;fillColor=none;align=center;verticalAlign=middle;whiteSpace=wrap;rounded=0;" parent="1" vertex="1">
                    <mxGeometry x="225" y="180" width="135" height="32" as="geometry"/>
                </mxCell>
                <mxCell id="25" value="如果work中所有工作执行完，从workList中移除work" style="text;html=1;strokeColor=none;fillColor=none;align=center;verticalAlign=middle;whiteSpace=wrap;rounded=0;" parent="1" vertex="1">
                    <mxGeometry x="110" y="340" width="180" height="20" as="geometry"/>
                </mxCell>
                <mxCell id="31" value="找不到最高优先级work,return" style="text;html=1;strokeColor=none;fillColor=none;align=center;verticalAlign=middle;whiteSpace=wrap;rounded=0;" vertex="1" parent="1">
                    <mxGeometry x="320" y="148" width="180" height="22" as="geometry"/>
                </mxCell>
            </root>
        </mxGraphModel>
    </diagram>
</mxfile>